<svg id="Layer_1" data-name="Layer 1" xmlns="http://www.w3.org/2000/svg" viewBox="0 0 746.48 980.51"><defs><style>.cls-1,.cls-2{fill:#fff;}.cls-2{stroke:#fff;stroke-miterlimit:10;}</style></defs><path class="cls-1" d="M473.78,13.42C412.51,30.08,364.73,94.78,340.71,194c-7.6,31.86-14.7,79.89-14.7,100,0,11.27-.49,12.25-8.58,16.17-11.52,5.39-26.71,22.79-30.14,34.8-6.86,22.3-2,40.93,15.44,58.08,18.87,19.12,40.68,23.28,63.72,12.5,14.7-6.86,23.77-16.17,30.39-30.88,11.76-25.73,2.7-53.42-23.28-71.8-10.29-7.35-10.54-7.35-9.31-19.85,6.62-68.62,16.91-113.46,35.53-154.88,17.64-39.7,48.52-74.25,75-84.3C529.66,33,585.54,85,614.21,183.25c7.35,26.22,17.15,78.18,19.36,104.64,1.72,19.61,1.72,19.61-4.9,23.28C612,320,598,343.52,598,362.63c0,23.53,19.85,50,42.4,56.12,43.36,12.25,84.78-28.92,72.77-72.05-3.68-13-18.38-30.88-30.14-36.27L675,306.51l-4.17-33.82c-10.29-83.57-30.39-146.06-61.76-193.36C572.79,24.93,522.3.43,473.78,13.42ZM356.64,349.15c12.25,12,3.68,33.08-13.48,33.08-10.05,0-19.6-9.56-19.6-19.6S333.12,343,343.16,343A19.16,19.16,0,0,1,356.64,349.15Zm313.68,0A17.89,17.89,0,1,1,656.84,343,19.12,19.12,0,0,1,670.32,349.15Z" transform="translate(-126.76 -10)"/><path class="cls-2" d="M147.6,594.71c-11.27,214.19-20.34,390.63-20.34,392.11.25,2.45,76.46,3.19,372.74,3.19s372.5-.74,372.74-3.19c0-1.47-9.07-177.92-20.34-392.11L832.06,205.79H756.83c-51.46,0-75.48.73-75.48,2.69,0,1.23,1.23,10.05,2.69,19.6L687,245H795.3l17.9,344.82c9.8,189.93,18.38,348.73,19.11,352.89l1.23,8.09H166.47l1.23-8.09c.74-4.17,9.31-163,19.12-352.89L204.7,245H310.32l2.94-17.15c1.72-9.56,2.94-18.38,2.94-19.61,0-1.47-27.2-2.45-74.25-2.45h-74Z" transform="translate(-126.76 -10)"/><path class="cls-1" d="M394.62,219.76c-1.47,7.84-3.43,16.66-4.17,19.6L389.22,245H608.31l-1.23-5.64c-.74-2.94-2.7-11.76-4.17-19.6l-2.7-14H397.32Z" transform="translate(-126.76 -10)"/></svg>